<svg width="139" height="68" fill="none" xmlns="http://www.w3.org/2000/svg"><path d="M139 0H0l60 63c5 6 14 6 19 0l60-63Z" fill="#81B3D3"/><path d="m37 0 32 37 32-36-64-1Z" fill="#23A9E1"/><path d="M61 14h18c-2-1-5-4-6-3 0 0-5-5-8-3-3 3-4 0-7 2-4 2 2 3 3 4Zm27-3H78c4-4 6-4 10 0Z" fill="#fff"/><path d="M98 3V1h2l-2 2Zm-49 9 6-4c3-2 8-5 14-5s11 3 15 5l6 5-3 2c-4 1-7 4-12 4l-3-3-2-1-4-1c-1 0-1 3-3 3l-3-4c-4-5-8-4-11 0l20 23-20-24ZM40 1v2l-1-2h1Zm54 0h3v3l-3 4V1Zm-4 11V1h4v7l-4 4Zm0-10v10l-4-3 4-7Zm-5 0v6l-1-1-2-1 3-4Zm-4 0v4l-3-2 3-2Zm1-1h3l-3 5V1Zm4 0h4l-4 7V1Zm-9 0h4l-3 3h-1V1Zm0 1v2l-3-1 3-1Zm-5 0v1l-2-1h2Zm-6 0h2l-2 1V2Zm-5 0 4 1-4 1V2Zm4 1-3-2h3v2Zm4-1-3-1h3v1Zm0-1h3l-3 1V1Zm4 0h3l-3 2V1ZM61 4l-4-3h4v3Zm-4-2 3 2-3 2V2Zm-4 0 3 4-3 2V2Zm-5 0 4 7-4 3V2Zm4 6-3-7h3v7Zm4-3-3-4h3v4ZM44 7l-3-3V1h3v6Zm0-6h4v11l-4-4V1Zm25-1H36v14l33 38 33-38V0H69Z" fill="#491213"/><path d="m66 44 3-4 3 4-3 4-3-4Z" fill="#23A9E1"/><path d="M74 29c-3-2-2-3 1-4 1-1 4-4 6-3l-7 7Zm-2 3h-6c1 0 4 1 1 2h4l-1-1 2-1Zm1-2h-2c-2-2-6-1-8-1 1 2 10 3 10 1Zm-7-2c-1 0-6 0-3-2 1 0 7 0 3 2Zm2-3c0-1 1-2 2-1s0 2-2 1Zm-2 0c-3 1-6 0-2-1 2-1 5 0 2 1-1 0 0 0 0 0Zm-3-6c-1 2-2 2-1 0 0-2 1-1 3-2 1-1 2-3 4-2l3 1-2 7c-3 0-2-4 0-6-2 0-3 4-2 4-1 1-3 3-5 2v-4Zm-4 3c-6 0-2-8 0-8 2 1 2 8 0 8Zm-6-8c-3 0-2-2 0-3l6 2-6 1c0-2 0-1 0 0Z" fill="#DC6243"/><path d="M72 25c-3-3 4-3 6-4l8-5c-1 2-3 5-5 5l-4 1-5 3Z" fill="#F49774"/><path d="M73 21c-2 1-3-2 0-2h5c-1 2-3 2-5 2Z" fill="#F4B1A4"/><path d="m51 20 1 1v2l1-2-3-4-3 1h2l1 1-4 3h-1 1l1 2v-1l4-3Zm-3-4-1-2h-1l-4 4h-1l2 1v1-1h1l4-3Zm-6-1-3-1 2-3h3l-1 2v1l2-2-1-2-3-1c-2-1-3 1-3 3v2l2 2 2-1Zm26 23-3-4h-1v1l-4 3h-1l2 2c1 0 0 0 0 0l3-2 1 1-1 1 2-2h-1l-1-1h1l2 1-1 1v1l2-2Zm-10-9-2 1v5h5c1-1 2-3 1-4l-4-2Zm2 2c1-1 1 0 1 1l-3 3c-1 0-2-1-1-2l2-2h1Zm-3-5h1l-2-1-2 1 1-2h1l-2-2-1-1v2l-1 2-2 2h-1l2 1v1l1-1 2-1 3-1Zm24 7v1s0 2-1 1l-2-1 2-1-2-1v1h-1v-1l1-1h1l-2-1-3 3v1l5 3v1l4-4-2-2v1Zm-4 4c-1-1-3 1-4 1l-1-1 2-1h1l-2-1-1 1-1 2 1 2h2l1-1 2 1-2 1h-2l2 1 1-1 1-1v-3Zm18-27-1 1-1 1c1 0 4 5 3 6l-4-4h-1l-1 1h1l2 1h-3l-2 1v1c0 1 0 0 0 0l4 4h1l1-1h-1l-4-3h6v1l1-1h1l1-2h-1l-1-1 1-1h2v1l2-2v-1c-1 1-6-1-6-1v-1Zm0 2 2 1-1 1-1-2Zm-7 8-3 1v5c2 1 4 1 5-1v-4l-2-1Zm-1 1 1 1 2 3c0-1 0-1 0 0l-3-1c-1 0-2-1-1-2l1-1Zm-4 4-3 2-2 2h1l4 4 3-4v-3l-3-1Zm-1 2h1c1 0 3 2 2 3l-1 1-4-3 2-1Z" fill="#fff"/></svg>